<svg width="57" height="57" viewBox="0 0 57 57" fill="none" xmlns="http://www.w3.org/2000/svg">
<path d="M26.8375 19.7125L21.9094 14.725C21.4344 14.25 21.1969 13.6958 21.1969 13.0625C21.1969 12.4291 21.4344 11.875 21.9094 11.4L26.8446 6.41245C27.3149 5.93745 27.8738 5.69995 28.5214 5.69995C29.1705 5.69995 29.7374 5.93745 30.2219 6.41245L35.15 11.4C35.625 11.875 35.8625 12.4291 35.8625 13.0625C35.8625 13.6958 35.625 14.25 35.15 14.725L30.2148 19.7125C29.7445 20.1875 29.1856 20.425 28.538 20.425C27.8888 20.425 27.322 20.1875 26.8375 19.7125ZM4.75 47.5C4.07708 47.5 3.51342 47.272 3.059 46.816C2.60458 46.36 2.37658 45.7963 2.375 45.125V38C2.375 36.6541 2.8405 35.526 3.7715 34.6156C4.7025 33.7052 5.82033 33.25 7.125 33.25H14.9031C15.6948 33.25 16.4469 33.4479 17.1594 33.8437C17.8719 34.2395 18.4458 34.7739 18.8813 35.4468C20.0292 36.9906 21.4447 38.1979 23.1278 39.0687C24.8108 39.9395 26.6016 40.375 28.5 40.375C30.4396 40.375 32.2509 39.9395 33.934 39.0687C35.6171 38.1979 37.012 36.9906 38.1187 35.4468C38.6333 34.7739 39.2374 34.2395 39.9309 33.8437C40.6244 33.4479 41.3464 33.25 42.0969 33.25H49.875C51.2208 33.25 52.349 33.7052 53.2594 34.6156C54.1698 35.526 54.625 36.6541 54.625 38V45.125C54.625 45.7979 54.397 46.3623 53.941 46.8183C53.485 47.2743 52.9213 47.5015 52.25 47.5H40.375C39.7021 47.5 39.1384 47.272 38.684 46.816C38.2296 46.36 38.0016 45.7963 38 45.125V42.0968C36.6146 43.0864 35.1199 43.8385 33.516 44.3531C31.9121 44.8677 30.2401 45.125 28.5 45.125C26.7979 45.125 25.1354 44.8582 23.5125 44.3246C21.8896 43.791 20.3854 43.0286 19 42.0375V45.125C19 45.7979 18.772 46.3623 18.316 46.8183C17.86 47.2743 17.2963 47.5015 16.625 47.5H4.75ZM9.5 30.875C7.52083 30.875 5.83854 30.1822 4.45312 28.7968C3.06771 27.4114 2.375 25.7291 2.375 23.75C2.375 21.7312 3.06771 20.0394 4.45312 18.6746C5.83854 17.3097 7.52083 16.6265 9.5 16.625C11.5188 16.625 13.2113 17.3082 14.5778 18.6746C15.9442 20.041 16.6266 21.7328 16.625 23.75C16.625 25.7291 15.9426 27.4114 14.5778 28.7968C13.2129 30.1822 11.5203 30.875 9.5 30.875ZM47.5 30.875C45.5208 30.875 43.8385 30.1822 42.4531 28.7968C41.0677 27.4114 40.375 25.7291 40.375 23.75C40.375 21.7312 41.0677 20.0394 42.4531 18.6746C43.8385 17.3097 45.5208 16.6265 47.5 16.625C49.5187 16.625 51.2113 17.3082 52.5778 18.6746C53.9442 20.041 54.6266 21.7328 54.625 23.75C54.625 25.7291 53.9426 27.4114 52.5778 28.7968C51.2129 30.1822 49.5203 30.875 47.5 30.875Z" fill="black"/>
</svg>
