<svg width="52" height="52" viewBox="0 0 52 52" fill="none" xmlns="http://www.w3.org/2000/svg">
<path fill-rule="evenodd" clip-rule="evenodd" d="M26 0C40.3598 0 52 11.6402 52 26C52 40.3598 40.3598 52 26 52C11.6402 52 0 40.3598 0 26C0 11.6402 11.6402 0 26 0ZM5.733 30.706C6.64289 34.6122 8.66135 38.1725 11.5458 40.9593C14.4303 43.746 18.0582 45.6405 21.9934 46.4152C21.4916 39.5902 19.2478 35.4952 16.4138 33.2306C13.6994 31.0596 10.0178 30.2198 5.733 30.7034V30.706ZM35.5862 33.228C32.7522 35.4978 30.5084 39.5902 30.0066 46.4152C33.9422 45.6403 37.5702 43.7454 40.4548 40.9582C43.3393 38.171 45.3576 34.6101 46.267 30.7034C41.9822 30.2198 38.3006 31.0596 35.5862 33.2306V33.228ZM26 5.2C21.1537 5.19914 16.4591 6.89061 12.727 9.98232C8.99496 13.074 6.45961 17.3719 5.5588 22.1338L5.447 22.7786L11.193 21.6294C12.7062 21.3278 14.144 20.5296 15.7508 19.4454L16.991 18.5822C19.0632 17.1106 22.1338 15.6 26 15.6C29.6088 15.6 32.5234 16.9156 34.58 18.2884L36.2492 19.4454C37.6532 20.3944 38.9324 21.1224 40.2428 21.4942L40.807 21.6294L46.553 22.7786C45.785 17.8796 43.292 13.4161 39.5235 10.1929C35.7549 6.96978 30.9589 5.19905 26 5.2Z" fill="black"/>
</svg>
