<svg width="52" height="52" viewBox="0 0 52 52" fill="none" xmlns="http://www.w3.org/2000/svg">
<path d="M47.0384 43.9617L43.9617 47.0384C43.5558 47.4419 43.0066 47.6684 42.4342 47.6684C41.8618 47.6684 41.3127 47.4419 40.9067 47.0384L15.1667 21.3417C14.4622 21.5461 13.7335 21.6554 13 21.6667C11.6205 21.6657 10.2612 21.3354 9.03503 20.7033C7.80886 20.0712 6.75131 19.1555 5.95028 18.0324C5.14926 16.9093 4.62792 15.6112 4.4296 14.246C4.23128 12.8808 4.36171 11.488 4.81005 10.1834L10.3134 15.6867L11.4617 14.5384L14.5384 11.4617L15.6867 10.3134L10.1834 4.81004C11.488 4.3617 12.8808 4.23127 14.246 4.42959C15.6112 4.62791 16.9093 5.14925 18.0324 5.95028C19.1555 6.7513 20.0712 7.80885 20.7033 9.03502C21.3355 10.2612 21.6657 11.6205 21.6667 13C21.6554 13.7335 21.5461 14.4622 21.3417 15.1667L47.0384 40.9067C47.4419 41.3127 47.6684 41.8618 47.6684 42.4342C47.6684 43.0066 47.4419 43.5558 47.0384 43.9617ZM4.96172 40.9067C4.55817 41.3127 4.33167 41.8618 4.33167 42.4342C4.33167 43.0066 4.55817 43.5558 4.96172 43.9617L8.03838 47.0384C8.44433 47.4419 8.99348 47.6684 9.56588 47.6684C10.1383 47.6684 10.6874 47.4419 11.0934 47.0384L22.945 35.2084L16.8134 29.0767M43.3334 4.33337L34.6667 8.66671V13L29.965 17.7017L34.2984 22.035L39.0001 17.3334H43.3334L47.6667 8.66671L43.3334 4.33337Z" fill="black"/>
</svg>
