<svg width="35" height="35" viewBox="0 0 35 35" fill="none" xmlns="http://www.w3.org/2000/svg">
<path d="M17.5001 13.8834C16.7848 13.8834 16.0855 14.0955 15.4908 14.4929C14.896 14.8903 14.4325 15.4552 14.1587 16.116C13.885 16.7769 13.8134 17.5041 13.9529 18.2057C14.0925 18.9072 14.4369 19.5517 14.9427 20.0574C15.4485 20.5632 16.0929 20.9077 16.7945 21.0473C17.4961 21.1868 18.2233 21.1152 18.8841 20.8414C19.545 20.5677 20.1098 20.1042 20.5072 19.5094C20.9046 18.9146 21.1167 18.2154 21.1167 17.5001C21.1167 17.0251 21.0232 16.5548 20.8414 16.116C20.6597 15.6772 20.3933 15.2785 20.0574 14.9427C19.7216 14.6069 19.3229 14.3405 18.8841 14.1587C18.4453 13.977 17.975 13.8834 17.5001 13.8834ZM31.9813 10.3105C31.9746 9.18422 31.7672 8.06816 31.3688 7.01466C31.0761 6.24359 30.6232 5.54334 30.04 4.96014C29.4568 4.37694 28.7566 3.92404 27.9855 3.63133C26.932 3.23298 25.8159 3.02557 24.6897 3.01883C22.8084 2.91675 22.2542 2.91675 17.5001 2.91675C12.7459 2.91675 12.1917 2.91675 10.3105 3.01883C9.18422 3.02557 8.06816 3.23298 7.01466 3.63133C6.24359 3.92404 5.54334 4.37694 4.96014 4.96014C4.37694 5.54334 3.92404 6.24359 3.63133 7.01466C3.23298 8.06816 3.02557 9.18422 3.01883 10.3105C2.91675 12.1917 2.91675 12.7459 2.91675 17.5001C2.91675 22.2542 2.91675 22.8084 3.01883 24.6897C3.03565 25.8197 3.24271 26.9388 3.63133 28.0001C3.92111 28.7685 4.37384 29.465 4.95841 30.0417C5.53941 30.6281 6.24107 31.0809 7.01466 31.3688C8.06816 31.7672 9.18422 31.9746 10.3105 31.9813C12.1917 32.0834 12.7459 32.0834 17.5001 32.0834C22.2542 32.0834 22.8084 32.0834 24.6897 31.9813C25.8159 31.9746 26.932 31.7672 27.9855 31.3688C28.7591 31.0809 29.4608 30.6281 30.0417 30.0417C30.6263 29.465 31.0791 28.7685 31.3688 28.0001C31.7659 26.9412 31.9732 25.8206 31.9813 24.6897C32.0834 22.8084 32.0834 22.2542 32.0834 17.5001C32.0834 12.7459 32.0834 12.1917 31.9813 10.3105ZM28.2772 21.9772C28.2311 22.8772 28.039 23.7638 27.7084 24.6022C27.4253 25.3017 27.0044 25.9372 26.4708 26.4708C25.9372 27.0044 25.3017 27.4253 24.6022 27.7084C23.7558 28.0207 22.8643 28.193 21.9626 28.2188H13.0376C12.1359 28.193 11.2443 28.0207 10.398 27.7084C9.67459 27.4401 9.02141 27.0113 8.48758 26.4542C7.95881 25.9314 7.55068 25.2993 7.29175 24.6022C6.97929 23.7564 6.81166 22.8641 6.79591 21.9626V13.0376C6.81166 12.1361 6.97929 11.2437 7.29175 10.398C7.56004 9.67459 7.98884 9.02141 8.54591 8.48758C9.07168 7.96238 9.70296 7.55478 10.398 7.29175C11.2443 6.97951 12.1359 6.80712 13.0376 6.78133H21.9626C22.8643 6.80712 23.7558 6.97951 24.6022 7.29175C25.3256 7.56004 25.9788 7.98884 26.5126 8.54591C27.0413 9.06879 27.4495 9.7009 27.7084 10.398C28.0207 11.2443 28.193 12.1359 28.2188 13.0376V17.5001C28.2188 20.5042 28.3209 20.8105 28.2772 21.9626V21.9772ZM25.9438 11.1272C25.7702 10.6561 25.4964 10.2283 25.1414 9.87331C24.7864 9.51831 24.3586 9.24455 23.8876 9.07091C23.2408 8.84671 22.5595 8.73811 21.8751 8.75008H13.1251C12.4371 8.7568 11.7558 8.88517 11.1126 9.12925C10.6487 9.295 10.2255 9.55758 9.87093 9.89954C9.5164 10.2415 9.23871 10.655 9.05633 11.1126C8.84532 11.7623 8.74187 12.442 8.75008 13.1251V21.8751C8.76534 22.5622 8.89343 23.2421 9.12925 23.8876C9.30288 24.3586 9.57664 24.7864 9.93164 25.1414C10.2866 25.4964 10.7144 25.7702 11.1855 25.9438C11.8079 26.1719 12.4626 26.2999 13.1251 26.323H21.8751C22.563 26.3163 23.2444 26.1879 23.8876 25.9438C24.3586 25.7702 24.7864 25.4964 25.1414 25.1414C25.4964 24.7864 25.7702 24.3586 25.9438 23.8876C26.1879 23.2444 26.3163 22.563 26.323 21.8751V13.1251C26.3227 12.4365 26.1942 11.754 25.9438 11.1126V11.1272ZM17.5001 23.0709C16.7692 23.0709 16.0455 22.9267 15.3704 22.6466C14.6954 22.3664 14.0822 21.9559 13.5661 21.4384C13.0499 20.9209 12.641 20.3066 12.3626 19.6308C12.0842 18.955 11.9419 18.231 11.9438 17.5001C11.9438 16.3977 12.2709 15.32 12.8837 14.4036C13.4965 13.4871 14.3674 12.7731 15.3862 12.3519C16.405 11.9307 17.5258 11.8212 18.6069 12.0374C19.6879 12.2535 20.6805 12.7855 21.459 13.5661C22.2375 14.3466 22.7669 15.3406 22.9802 16.4222C23.1935 17.5038 23.0811 18.6244 22.6572 19.6421C22.2334 20.6597 21.5171 21.5288 20.599 22.1392C19.681 22.7495 18.6025 23.0738 17.5001 23.0709ZM23.3334 13.023C23.011 12.9889 22.7127 12.8367 22.4959 12.5957C22.279 12.3547 22.1591 12.042 22.1591 11.7178C22.1591 11.3936 22.279 11.0809 22.4959 10.8399C22.7127 10.5989 23.011 10.4467 23.3334 10.4126C23.6558 10.4467 23.9541 10.5989 24.171 10.8399C24.3878 11.0809 24.5078 11.3936 24.5078 11.7178C24.5078 12.042 24.3878 12.3547 24.171 12.5957C23.9541 12.8367 23.6558 12.9889 23.3334 13.023Z" fill="black"/>
</svg>
