<svg width="57" height="57" viewBox="0 0 57 57" fill="none" xmlns="http://www.w3.org/2000/svg">
<path d="M55.6625 20.4688H48.9973L47.1448 15.8375C45.2411 11.076 40.6978 8 35.5689 8H21.4303C16.3025 8 11.7581 11.076 9.85325 15.8375L8.00075 20.4688H1.33665C0.467173 20.4688 -0.170737 21.2859 0.0407865 22.1287L0.708755 24.8005C0.856822 25.395 1.3912 25.8125 2.00461 25.8125H4.23897C2.74383 27.1184 1.78085 29.0165 1.78085 31.1562V36.5C1.78085 38.2946 2.46663 39.9144 3.5621 41.168V47.1875C3.5621 49.1547 5.15743 50.75 7.1246 50.75H10.6871C12.6543 50.75 14.2496 49.1547 14.2496 47.1875V43.625H42.7496V47.1875C42.7496 49.1547 44.3449 50.75 46.3121 50.75H49.8746C51.8418 50.75 53.4371 49.1547 53.4371 47.1875V41.168C54.5326 39.9155 55.2183 38.2957 55.2183 36.5V31.1562C55.2183 29.0165 54.2554 27.1184 52.7613 25.8125H54.9957C55.6091 25.8125 56.1435 25.395 56.2915 24.8005L56.9595 22.1287C57.1699 21.2859 56.532 20.4688 55.6625 20.4688ZM16.4684 18.4838C17.2799 16.4554 19.2449 15.125 21.4303 15.125H35.5689C37.7543 15.125 39.7192 16.4554 40.5308 18.4838L42.7496 24.0312H14.2496L16.4684 18.4838ZM10.6871 36.4777C8.54959 36.4777 7.1246 35.0572 7.1246 32.9264C7.1246 30.7955 8.54959 29.375 10.6871 29.375C12.8246 29.375 16.0308 32.5712 16.0308 34.7021C16.0308 36.8329 12.8246 36.4777 10.6871 36.4777ZM46.3121 36.4777C44.1746 36.4777 40.9683 36.8329 40.9683 34.7021C40.9683 32.5712 44.1746 29.375 46.3121 29.375C48.4496 29.375 49.8746 30.7955 49.8746 32.9264C49.8746 35.0572 48.4496 36.4777 46.3121 36.4777Z" fill="black"/>
</svg>
