<svg width="64" height="64" viewBox="0 0 64 64" fill="none" xmlns="http://www.w3.org/2000/svg">
<path d="M32 61C48.0163 61 61 48.0163 61 32C61 15.9837 48.0163 3 32 3C15.9837 3 3 15.9837 3 32C3 48.0163 15.9837 61 32 61Z" stroke="black" stroke-width="6" stroke-linecap="round" stroke-linejoin="round"/>
<path d="M32 37.8C35.2032 37.8 37.8 35.2032 37.8 32C37.8 28.7967 35.2032 26.2 32 26.2C28.7967 26.2 26.2 28.7967 26.2 32C26.2 35.2032 28.7967 37.8 32 37.8Z" stroke="black" stroke-width="6" stroke-linecap="round" stroke-linejoin="round"/>
<path d="M32 49.4C41.6097 49.4 49.4 41.6097 49.4 32C49.4 22.3902 41.6097 14.6 32 14.6C22.3902 14.6 14.6 22.3902 14.6 32C14.6 41.6097 22.3902 49.4 32 49.4Z" stroke="black" stroke-width="6" stroke-linecap="round" stroke-linejoin="round"/>
<path d="M32.0002 37.5126V49.1126M26.4902 33.5106L15.4702 37.0776M28.5782 27.0146L21.7632 17.6476M37.5102 33.5106L48.5302 37.0776M35.4222 27.0146L42.2372 17.6476" stroke="black" stroke-width="6" stroke-linecap="round" stroke-linejoin="round"/>
</svg>
