<svg width="98" height="98" viewBox="0 0 98 98" fill="none" xmlns="http://www.w3.org/2000/svg">
<path fill-rule="evenodd" clip-rule="evenodd" d="M76.9789 73.9002V63.0589H72.5036V73.9002H76.9789ZM53.2915 69.4003V63.2222H48.955V67.9426C48.955 69.3146 48.8978 69.6984 48.8162 70.0577C48.514 71.0459 47.4687 71.4869 46.4029 71.4869C44.9207 71.4869 44.2347 70.9071 43.957 70.0006C43.8829 69.6855 43.8378 69.3643 43.8222 69.041C43.7937 68.6857 43.8222 68.3019 43.8222 67.8895V63.2222H39.4286V69.4289C39.4286 70.8295 39.8982 71.8707 40.6658 72.5853C41.9807 73.8757 44.2061 74.2595 46.2641 74.2595C48.7631 74.2595 50.6822 73.9002 52.0542 72.5567C52.7688 71.8707 53.2915 70.9642 53.2915 69.4003ZM31.9928 68.6286C31.7741 68.593 31.5529 68.5752 31.3313 68.5755H26.3905C26.1703 68.5754 25.9504 68.5932 25.7331 68.6286C25.8147 68.5469 25.9781 68.3836 26.1414 68.1631L28.3668 64.4881C28.669 63.994 28.8078 63.6632 28.8609 63.5244C28.9181 63.6632 29.0528 63.9899 29.355 64.5126L31.6335 68.2202C31.7437 68.3836 31.9071 68.5469 31.9928 68.6286ZM40.282 73.9002L30.4003 59.0777H24.8552L26.3088 60.809C26.3415 60.8362 26.3878 60.8634 26.4477 60.8907C26.3878 60.9179 26.3415 60.9451 26.3088 60.9723L17.693 73.9002H22.6869L24.0344 71.6788C24.0775 71.5931 24.1051 71.5005 24.1161 71.4052C24.1692 71.4052 24.308 71.4583 24.4427 71.4583H33.3648C33.5037 71.4529 33.6044 71.4338 33.667 71.4012C33.6635 71.4782 33.6819 71.5547 33.7201 71.6217L35.1207 73.9002H40.282ZM71.2949 68.3305C71.2949 67.1218 70.8049 65.7172 69.2655 63.7735L65.5578 59.0777H60.4006L63.3365 62.3729C63.8306 62.9201 64.4635 63.4142 64.4635 63.4142C63.7445 63.0326 62.9418 62.8361 62.1278 62.8425C60.4292 62.8425 58.6978 63.1937 57.1625 64.0471C55.5128 64.9536 54.4144 66.4603 54.4144 68.4652C54.4144 70.0047 55.1004 71.1847 55.9783 72.0872C57.9587 74.0635 61.5521 74.2595 62.871 74.2595C64.8187 74.2595 67.8649 73.8185 69.5962 72.2546C70.1442 71.7605 70.5794 71.1544 70.8725 70.4774C71.1656 69.8003 71.3097 69.0681 71.2949 68.3305ZM67.0156 68.4652C67.0156 69.5922 66.2724 70.4416 65.3414 70.9071C64.5737 71.3195 63.6672 71.4297 62.871 71.4297C62.0747 71.4297 61.1397 71.2664 60.372 70.8826C59.4369 70.413 58.7264 69.5106 58.7264 68.5224C58.7264 67.3382 59.6288 66.4072 60.7027 65.9417C61.3602 65.6396 62.1564 65.5293 62.7852 65.5293C63.3937 65.5293 64.2716 65.611 64.9576 65.8846C66.1907 66.4072 67.0156 67.3954 67.0156 68.4652ZM75.5579 23.7405C72.3437 23.736 69.223 24.8214 66.7052 26.8193C64.1875 24.8214 61.0667 23.736 57.8526 23.7405C54.6384 23.736 51.5177 24.8214 48.9999 26.8193C46.4821 24.8214 43.3614 23.736 40.1472 23.7405C36.9331 23.736 33.8123 24.8214 31.2946 26.8193C29.1905 25.1567 26.6606 24.1204 23.9948 23.8291C21.329 23.5377 18.635 24.0032 16.2215 25.1722C13.8079 26.3411 11.7725 28.1662 10.3483 30.4385C8.92407 32.7107 8.1687 35.3382 8.1687 38.0199C8.1687 40.7016 8.92407 43.3291 10.3483 45.6013C11.7725 47.8736 13.8079 49.6987 16.2215 50.8677C18.635 52.0366 21.329 52.5021 23.9948 52.2108C26.6606 51.9194 29.1905 50.8831 31.2946 49.2205C33.8129 51.217 36.9336 52.3009 40.1472 52.2952C43.3609 52.3009 46.4816 51.217 48.9999 49.2205C51.5182 51.217 54.6389 52.3009 57.8526 52.2952C61.0663 52.3009 64.1869 51.217 66.7052 49.2205C68.4921 50.6311 70.5905 51.5939 72.8252 52.0286C75.0599 52.4632 77.3661 52.3571 79.5515 51.719C81.7368 51.081 83.7379 49.9295 85.3877 48.3607C87.0374 46.792 88.2881 44.8514 89.0352 42.7009C89.7824 40.5504 90.0044 38.2524 89.6827 35.9986C89.361 33.7449 88.505 31.6008 87.186 29.7452C85.867 27.8896 84.1234 26.3764 82.1006 25.3319C80.0778 24.2873 77.8345 23.7417 75.5579 23.7405ZM28.9589 46.8889C27.3194 48.0957 25.3773 48.8239 23.3485 48.9924C21.3198 49.1609 19.2841 48.7632 17.468 47.8435C15.6519 46.9238 14.1266 45.5182 13.0619 43.7831C11.9971 42.048 11.4348 40.0515 11.4373 38.0158C11.4355 35.9805 11.9984 33.9845 13.0635 32.25C14.1285 30.5155 15.6538 29.1105 17.4698 28.1913C19.2858 27.2721 21.3212 26.8747 23.3496 27.0434C25.3779 27.2121 27.3197 27.9403 28.9589 29.1468C26.961 31.6713 25.8741 34.7964 25.8741 38.0158C25.8741 41.2352 26.961 44.3644 28.9589 46.8889ZM31.2946 44.5573C29.892 42.6652 29.1373 40.3711 29.1427 38.0158C29.1373 35.6606 29.892 33.3664 31.2946 31.4743C32.6992 33.3649 33.4587 35.6597 33.4506 38.0158C33.4538 40.3702 32.6978 42.6668 31.2946 44.5573ZM46.6642 46.8807C44.7714 48.2675 42.4855 49.0142 40.1391 49.0122C37.7973 49.0165 35.5159 48.2694 33.6302 46.8807C35.6281 44.3562 36.7151 41.2311 36.7151 38.0117C36.7151 34.7923 35.6281 31.6672 33.6302 29.1427C35.5154 27.7527 37.7968 27.0041 40.1391 27.0072C42.5809 27.0072 44.8349 27.7993 46.6642 29.1427C44.6664 31.6672 43.5794 34.7923 43.5794 38.0117C43.5794 41.2311 44.6664 44.3562 46.6642 46.8807ZM48.9999 44.5532C47.5974 42.6611 46.8427 40.367 46.848 38.0117C46.8444 35.6593 47.599 33.3683 48.9999 31.4784C50.4051 33.3692 51.1601 35.6642 51.1518 38.0199C51.1563 40.3738 50.4016 42.6623 48.9999 44.5532ZM64.3696 46.8848C62.5443 48.2323 60.2862 49.0163 57.8444 49.0163C55.5026 49.0205 53.2212 48.2734 51.3356 46.8848C53.3334 44.3603 54.4204 41.2352 54.4204 38.0158C54.4204 34.7964 53.3334 31.6713 51.3356 29.1468C53.1608 27.8034 55.4026 27.0112 57.8444 27.0112C60.2862 27.0112 62.5402 27.8034 64.3696 29.1468C62.3717 31.6713 61.2847 34.7964 61.2847 38.0158C61.2847 41.2352 62.3717 44.3603 64.3696 46.8848ZM66.7052 44.5573C65.3027 42.6652 64.548 40.3711 64.5533 38.0158C64.5451 35.6601 65.3001 33.3651 66.7052 31.4743C68.1104 33.3651 68.8654 35.6601 68.8572 38.0158C68.8616 40.3697 68.107 42.6663 66.7052 44.5573ZM75.5579 49.0163C73.1324 49.0163 70.8621 48.2078 69.0409 46.8807C71.0388 44.3562 72.1258 41.2311 72.1258 38.0117C72.1258 34.7923 71.0388 31.6672 69.0409 29.1427C70.6801 27.9362 72.6219 27.208 74.6503 27.0393C76.6786 26.8707 78.714 27.268 80.53 28.1872C82.346 29.1064 83.8713 30.5114 84.9364 32.2459C86.0014 33.9804 86.5643 35.9764 86.5625 38.0117C86.563 39.457 86.2788 40.8883 85.7259 42.2236C85.1731 43.559 84.3625 44.7724 83.3405 45.7944C82.3186 46.8163 81.1052 47.6269 79.7698 48.1797C78.4344 48.7326 77.0032 49.0169 75.5579 49.0163Z" fill="white"/>
</svg>
