<svg width="61" height="61" viewBox="0 0 61 61" fill="none" xmlns="http://www.w3.org/2000/svg">
<path fill-rule="evenodd" clip-rule="evenodd" d="M55.9166 30.5C55.9166 44.5377 44.5375 55.9167 30.4999 55.9167C16.4623 55.9167 5.08325 44.5377 5.08325 30.5C5.08325 16.4624 16.4623 5.08337 30.4999 5.08337C44.5375 5.08337 55.9166 16.4624 55.9166 30.5ZM55.1642 30.5C55.1642 16.8767 44.1207 5.83571 30.4999 5.83571C16.8791 5.83571 5.83559 16.8792 5.83559 30.5C5.83559 44.1208 16.8791 55.1644 30.4999 55.1644C44.1207 55.1644 55.1642 44.1208 55.1642 30.5Z" fill="white"/>
<path d="M16.4573 30.4542C16.457 28.607 16.8206 26.7778 17.5273 25.0712C18.234 23.3645 19.2701 21.8138 20.5763 20.5076C21.8825 19.2014 23.4332 18.1654 25.1398 17.4586C26.8465 16.7519 28.6757 16.3883 30.5229 16.3886V44.5173C34.2524 44.5166 37.829 43.0347 40.4662 40.3975C43.1034 37.7604 44.5853 34.1838 44.5859 30.4542H16.4573ZM18.3407 18.2085L16.4497 20.4655L15.2602 19.4691L17.169 17.1969C17.3825 16.9402 17.8628 16.8665 18.1856 17.1359C18.5542 17.4409 18.5923 17.9085 18.3407 18.2085ZM16.2489 16.653L14.4545 18.7905L13.3311 17.8501L15.1458 15.6846C15.3568 15.433 15.8321 15.4457 16.1371 15.7024C16.4726 15.9845 16.4726 16.3835 16.2489 16.653Z" fill="white"/>
<path d="M54.0512 30.4543C54.0835 33.5648 53.4988 36.6508 52.3308 39.5339C51.1629 42.417 49.4348 45.0399 47.2467 47.2509C45.0586 49.4619 42.4538 51.217 39.583 52.4149C36.7122 53.6128 33.6324 54.2296 30.5217 54.2296C27.411 54.2296 24.3312 53.6128 21.4604 52.4149C18.5896 51.217 15.9848 49.4619 13.7967 47.2509C11.6086 45.0399 9.88058 42.417 8.71261 39.5339C7.54464 36.6508 6.95991 33.5648 6.99224 30.4543C6.95991 27.3437 7.54464 24.2577 8.71261 21.3746C9.88058 18.4915 11.6086 15.8686 13.7967 13.6576C15.9848 11.4467 18.5896 9.69147 21.4604 8.4936C24.3312 7.29573 27.411 6.67896 30.5217 6.67896C33.6324 6.67896 36.7122 7.29573 39.583 8.4936C42.4538 9.69147 45.0586 11.4467 47.2467 13.6576C49.4348 15.8686 51.1629 18.4915 52.3308 21.3746C53.4988 24.2577 54.0835 27.3437 54.0512 30.4543ZM11.463 18.394L16.2159 22.3845L19.4007 18.5847C20.1301 17.7154 20.2445 16.8538 19.4769 16.1116C19.2177 15.8564 18.8781 15.6987 18.5158 15.6653C18.1535 15.632 17.7908 15.725 17.4893 15.9286C17.5983 15.6312 17.6009 15.3052 17.4969 15.006C17.2072 14.4723 17.0903 14.3782 16.8692 14.1927L16.8183 14.1495C15.9872 13.453 15.1129 14.0478 14.4876 14.795L11.463 18.394ZM32.9427 10.0777V14.4036H34.1804V8.20959H32.3199L30.6323 12.6219L28.9446 8.20959H27.0841V14.4036H28.3244V10.0777L29.9562 14.4036H31.3109L32.9427 10.0777ZM45.6459 20.285L47.9817 16.9783L46.9523 15.7075L43.2339 17.3037L45.6688 14.1215L44.7106 12.9396L40.8218 17.9365L41.9605 19.3294L45.6306 17.8171L45.6434 17.8323L43.4042 21.1111L44.5276 22.509L50.2234 19.7488L49.2652 18.5643L45.6459 20.285ZM30.523 45.4857C32.4969 45.4857 34.4516 45.0969 36.2753 44.3415C38.099 43.5861 39.756 42.4789 41.1518 41.0831C42.5476 39.6873 43.6548 38.0302 44.4102 36.2065C45.1656 34.3828 45.5544 32.4282 45.5544 30.4543C45.5544 28.4803 45.1656 26.5257 44.4102 24.702C43.6548 22.8783 42.5476 21.2212 41.1518 19.8254C39.756 18.4296 38.099 17.3224 36.2753 16.567C34.4516 15.8116 32.4969 15.4228 30.523 15.4228C26.5364 15.4228 22.7131 17.0065 19.8942 19.8254C17.0752 22.6444 15.4916 26.4677 15.4916 30.4543C15.4916 34.4408 17.0752 38.2641 19.8942 41.0831C22.7131 43.902 26.5364 45.4857 30.523 45.4857Z" fill="white"/>
</svg>
