<svg width="84" height="84" viewBox="0 0 84 84" fill="none" xmlns="http://www.w3.org/2000/svg">
<path d="M83.6675 34.244H55.72V28.861C55.7204 28.7885 55.7065 28.7167 55.6791 28.6496C55.6517 28.5826 55.6113 28.5216 55.5602 28.4702C55.5092 28.4188 55.4484 28.378 55.3815 28.3501C55.3146 28.3223 55.2429 28.308 55.1704 28.308H28.8329C28.7605 28.308 28.6888 28.3223 28.6219 28.3501C28.555 28.378 28.4942 28.4188 28.4432 28.4702C28.3921 28.5216 28.3517 28.5826 28.3243 28.6496C28.2969 28.7167 28.283 28.7885 28.2835 28.861V34.244H8.25295C7.94845 34.244 7.57745 34.489 7.42345 34.797L0.0699466 49.203C-0.0875534 49.511 0.0314466 49.7525 0.339447 49.7525H28.2799V55.1425C28.2799 55.4435 28.525 55.692 28.8295 55.692H55.167C55.4715 55.692 55.7164 55.447 55.7164 55.1425V49.7525H75.747C76.0515 49.7525 76.4224 49.5075 76.5799 49.203L83.93 34.797C84.0874 34.4925 83.9685 34.244 83.6639 34.244M74.935 37.73L70.581 46.2595H52.269V52.2375H31.7449V46.2595H9.08245L13.4399 37.73H31.7519V31.7555H52.276V37.73H74.935Z" fill="white"/>
</svg>
