<svg width="95" height="95" viewBox="0 0 95 95" fill="none" xmlns="http://www.w3.org/2000/svg">
<path fill-rule="evenodd" clip-rule="evenodd" d="M47.5117 32.2881C25.63 32.2881 7.9165 39.1123 7.9165 47.5118C7.9165 55.9154 25.63 62.7118 47.5117 62.7118C69.3934 62.7118 87.0832 55.9154 87.0832 47.5118C87.0832 39.1083 69.3696 32.2881 47.5117 32.2881ZM47.5117 61.1443C26.5325 61.1443 9.47213 55.0762 9.47213 47.5118C9.47213 39.9514 26.5167 33.8279 47.5117 33.8279C68.5067 33.8279 85.579 39.9752 85.579 47.5118C85.579 55.0525 68.5582 61.1483 47.5117 61.1483M63.3332 46.8033C62.4307 46.7043 61.3105 47.4762 60.4 48.6202C59.9409 49.1941 59.45 50.2827 59.3748 50.9239C59.2759 51.5731 59.45 52.2262 59.6836 52.4004C59.9211 52.5864 60.9265 53.1248 62.5177 51.4979C63.1903 50.7665 63.7821 49.965 64.2832 49.107L63.9982 49.0318C64.5405 48.0185 64.4296 46.93 63.3332 46.8033ZM47.5157 34.96C27.1382 34.96 10.6834 40.5808 10.6834 47.5079C10.6834 54.427 27.15 60.0875 47.5157 60.0875C67.8813 60.0875 84.3875 54.4548 84.3875 47.5039C84.3875 40.5531 67.8694 34.96 47.5157 34.96ZM30.3088 54.1618C28.0882 54.1618 26.113 52.6854 26.0655 50.0452C26.0417 48.4381 27.3123 46.4629 29.6913 45.8731C29.9723 45.8731 30.0713 45.972 30.0713 46.1343C30.0713 46.2373 29.9723 46.36 29.7388 46.4748C29.05 46.736 27.8546 48.1135 27.8546 49.3802C27.8546 50.342 28.4484 51.4068 29.4459 51.6325C29.715 51.7077 29.9723 51.6839 30.2336 51.6839C32.7115 51.6839 35.4982 48.8537 38.5065 44.547C38.0236 44.5708 35.9534 44.8083 35.4348 45.3981C35.1973 45.5841 35.0548 45.4733 35.0034 45.2714C35.0034 45.2239 35.0786 45.0339 35.1617 44.935C35.9771 43.9968 38.4313 43.795 39.0211 43.7198C41.218 40.2879 44.0284 38.1108 44.7923 37.9485C44.7765 37.9485 44.7554 37.9445 44.729 37.9366C42.7696 37.4735 40.9805 37.0856 39.5792 37.0856C34.6471 37.0856 32.4542 39.2389 32.5492 41.2023C32.6007 42.0058 33.2419 42.5283 34.1761 42.3423C35.2013 42.1562 36.6303 41.1785 36.9865 40.3156C37.0657 40.1375 37.2715 40.1018 37.3428 40.1652C37.4932 40.2879 37.4457 40.4779 37.4457 40.4779C37.323 41.4912 35.7832 44.2818 33.1311 44.2818C31.6507 44.2818 30.6532 42.8806 30.6769 41.5031C30.7007 38.9381 33.2775 36.3454 39.6386 36.3454C40.834 36.3454 42.1917 36.4443 43.6682 36.7095C45.3821 37.0223 49.6453 37.7466 53.1128 37.7981C54.3953 37.7981 56.0221 37.8495 57.3521 37.6477C58.7573 37.4102 58.4486 37.3587 59.0067 37.3587C59.5094 37.3587 59.5094 37.5725 59.5094 37.7743C59.5094 38.5977 56.6515 40.1889 54.2211 40.1889C50.6467 40.1889 46.9378 38.5502 45.014 38.0118C45.0601 38.0532 45.091 38.1088 45.1017 38.1698C45.1125 38.2308 45.1025 38.2936 45.0734 38.3483C44.9609 38.498 44.8336 38.6359 44.6934 38.76C44.1867 39.2231 42.449 40.3789 40.553 43.6089C42.0809 43.5298 43.8661 43.221 43.8661 43.221C43.8661 43.221 43.7671 42.8806 43.7671 42.5916C43.8463 41.4793 44.4836 40.8025 45.299 40.9291C45.5103 40.9635 45.7026 41.0713 45.8423 41.2334C45.982 41.3956 46.0602 41.6018 46.063 41.8158C46.0044 42.3441 45.7702 42.8375 45.398 43.217C45.1605 43.3952 44.915 43.5812 44.6063 43.7316C44.6063 44.0206 44.9903 44.2462 45.3188 44.2858C45.2475 44.5708 45.2713 44.6975 45.1486 44.6698C44.3846 44.6698 44.0798 43.9177 44.0798 43.9177C43.0507 44.1077 42.069 44.2343 40.0423 44.4323C34.9678 52.7843 33.3765 54.1618 30.2692 54.1618H30.3088ZM65.3163 52.7843C66.4128 52.7329 68.4355 50.6073 68.9184 50.0927C69.0134 49.966 69.1994 49.7285 69.2984 49.7285C69.3973 49.7285 69.6071 49.8275 69.6071 49.9937C69.6071 50.0927 69.3696 50.4806 69.1994 50.7181C68.1782 52.0204 66.488 54.0114 64.5761 54.0629C63.6261 54.0629 63.2698 53.675 63.1471 52.9229C62.7157 53.3108 61.2353 53.9877 59.7192 53.9877C59.2817 54.0013 58.8512 53.8751 58.4903 53.6274C58.1294 53.3797 57.8569 53.0233 57.7123 52.6102C57.4458 51.9989 57.3928 51.3157 57.5619 50.6706C56.8732 51.0308 56.2319 51.0823 55.3175 51.0585C54.2488 51.0308 53.5798 50.5439 53.2473 49.2654C52.0163 51.5454 51.9648 51.6206 50.7219 54.0114H48.5528L51.3394 49.2179C51.6436 48.6807 51.8677 48.102 52.0044 47.5C52.0757 47.1873 51.854 46.8983 51.5215 46.8745C51.1653 46.8745 50.5873 47.2387 50.0173 47.777C50.0173 47.777 48.5884 49.3287 47.5394 50.9041C46.5419 52.4083 44.828 54.1223 42.9675 54.1223C41.6098 54.1223 40.3907 53.3702 40.1334 51.9214C40.1334 51.9214 39.9948 52.2579 38.7994 52.9585C38.7005 53.01 38.4432 53.1564 38.368 53.1089C38.1695 52.9434 38.0351 52.7138 37.988 52.4598C38.0592 52.4835 38.2215 52.3568 38.7005 51.9689C39.6505 51.2445 39.8484 50.6666 39.8484 50.6666C40.0859 50.1798 40.4896 49.4039 40.7746 48.8537C41.5386 47.302 42.8686 45.7108 45.0378 45.6356C45.394 45.6356 45.493 45.786 45.5682 45.9245C45.778 46.075 45.7028 46.3877 45.7028 46.3877C45.0585 46.4928 44.442 46.7263 43.8898 47.0745C43.3376 47.4227 42.8611 47.8783 42.4886 48.4143C42.1046 48.9923 41.6969 49.9185 41.6217 50.5914C41.4753 51.7591 42.0057 52.531 42.7934 52.721C44.2738 52.9585 45.5048 51.87 46.4667 50.1798C46.7161 49.7443 46.9021 48.6043 46.9021 47.975C46.8843 47.414 46.6747 46.8762 46.3084 46.451C46.3084 46.0116 46.5934 45.7227 46.9259 45.7227C47.0248 45.7227 47.1238 45.7227 47.2346 45.8216C47.7373 46.3362 48.0223 47.3258 48.0223 48.0779C48.0223 48.3391 48.0223 48.5925 47.9709 48.8537C49.0436 47.5277 50.4013 45.8216 51.4503 45.4852C51.66 45.3862 51.854 45.3862 52.0638 45.3862C53.9757 45.3348 53.7184 47.1002 53.7184 47.1002C54.7396 45.9127 55.4561 45.4733 56.3903 45.5248C57.4155 45.5723 57.7757 46.3006 57.7757 46.8745C57.748 47.5475 57.2532 48.3273 56.418 48.351C55.6778 48.351 55.2463 47.9908 55.0128 47.3139C54.5298 47.4881 54.2963 47.8285 54.1973 48.5014C54.1602 48.6911 54.1665 48.8868 54.2156 49.0738C54.2647 49.2607 54.3555 49.4342 54.4811 49.5811C54.6068 49.7281 54.764 49.8447 54.941 49.9223C55.1181 49.9999 55.3104 50.0365 55.5036 50.0293C56.9088 50.0293 57.5223 49.4039 58.033 48.9408C59.7707 47.2783 60.7444 45.5485 63.2461 45.5762C64.7503 45.596 65.1303 46.8112 65.3915 47.3377L68.6809 41.6931H70.7036L65.2411 51.5216C65.1421 51.7314 64.8848 52.1193 64.9086 52.4202C64.96 52.911 65.5775 52.7843 65.344 52.7843H65.3163ZM45.1723 42.7579C45.3228 42.6075 45.58 42.1285 45.5286 41.8158C45.5088 41.6654 45.4336 41.4793 45.2515 41.5031C44.8675 41.5823 44.63 41.7683 44.535 42.1562C44.4296 42.4858 44.4296 42.84 44.535 43.1695C44.535 43.1695 44.7805 43.1933 45.1723 42.7579Z" fill="white"/>
</svg>
