<svg width="76" height="76" viewBox="0 0 76 76" fill="none" xmlns="http://www.w3.org/2000/svg">
<path d="M38 18.9871C48.4317 18.9871 57.8504 21.1581 64.6426 24.6453C71.461 28.1459 75.5 32.8932 75.5 37.9968C75.5 43.1037 71.4607 47.8519 64.6426 51.3533C57.8504 54.8412 48.4317 57.0134 38 57.0134C27.5699 57.0134 18.151 54.8413 11.3584 51.3533C4.53993 47.8519 0.5 43.1036 0.5 37.9968C0.500035 32.8933 4.53963 28.1459 11.3584 24.6453C18.151 21.1581 27.5699 18.9871 38 18.9871ZM42.0586 39.5613C41.1459 39.5857 40.3161 39.7406 39.8271 39.8484C37.3658 40.3903 34.9952 41.2256 32.9248 42.0242L30.9619 42.7986C23.8718 45.6308 20.0896 48.4907 18.8018 49.6082L18.7979 49.6121C18.6447 49.748 18.5197 49.8646 18.4307 49.9587C18.2108 50.1811 17.9873 50.4924 17.9873 50.9363C17.9875 51.5731 18.5331 51.9283 19.0596 52.1101C19.0809 52.1192 19.1168 52.1355 19.1455 52.1472C19.1756 52.1595 19.2368 52.1822 19.292 52.199V52.2009C24.7162 53.9279 31.1837 54.9353 38.127 54.9353H38.5117C39.4477 54.9145 40.3685 54.6915 41.2109 54.283L41.2227 54.2771C42.578 53.5733 43.5221 52.3509 44.1973 51.158C44.8715 49.9667 45.3137 48.7357 45.6133 48.0066L45.6123 48.0056C46.5553 45.715 46.8491 43.9963 46.6641 42.7117C46.4738 41.3912 45.7817 40.563 44.877 40.0935C44.0025 39.6398 42.9628 39.5371 42.0586 39.5613ZM64.9756 27.2322C64.4056 27.2718 64.1049 27.6443 63.9336 27.947L63.9297 27.9548L63.9248 27.9626C63.8136 28.1768 63.7086 28.3941 63.6094 28.614L63.6045 28.6248C62.1454 32.0569 57.0514 43.8556 50.3779 51.8435C50.2361 52.0099 50.11 52.1888 50 52.3777C49.7641 52.7739 49.7484 53.2445 50.0557 53.5759V53.5769C50.0575 53.5789 50.0597 53.5808 50.0615 53.5828C50.0648 53.5862 50.0679 53.5901 50.0713 53.5935V53.5925C50.3102 53.8464 50.6684 53.8969 50.9355 53.9041C51.2421 53.9122 51.6142 53.8664 52.0264 53.7859L52.0322 53.7849C58.2519 52.4931 63.5695 50.3656 67.3457 47.6755C71.1149 44.9905 73.4189 41.6882 73.4189 38.0476C73.4189 34.0168 70.5979 30.4005 66.0684 27.5691H66.0674C65.6915 27.3329 65.3759 27.2352 65.0947 27.2292L64.9756 27.2322ZM25.0664 22.0955C24.7596 22.0878 24.3887 22.1344 23.9775 22.2146L23.9717 22.2156C17.7501 23.5042 12.431 25.6315 8.6543 28.322C4.88509 31.0073 2.58123 34.3102 2.58105 37.949C2.58105 41.9799 5.40862 45.5993 9.93457 48.4304L9.9375 48.4324C10.3702 48.6987 10.7139 48.7853 11.0205 48.7693L11.0244 48.7683C11.5263 48.7386 11.8238 48.4433 12.002 48.1628L12.0713 48.0447C12.187 47.8298 12.2948 47.6102 12.3945 47.3875L12.3984 47.3787C13.8573 43.9407 18.9565 32.1346 25.6318 24.1462L25.6309 24.1453C25.7006 24.0636 25.7678 23.9798 25.8301 23.8923L26.0088 23.616L26.0156 23.6042C26.233 23.2073 26.242 22.7546 25.9531 22.4255L25.9502 22.4226C25.71 22.1536 25.341 22.1023 25.0664 22.0955ZM37.4824 21.072C36.6059 21.0992 35.6104 21.294 34.7773 21.7263C33.422 22.4301 32.4784 23.6521 31.8037 24.8445C31.1303 26.0346 30.6882 27.2659 30.3877 27.9919V27.9929C29.4444 30.284 29.1511 32.0035 29.3359 33.2888C29.5259 34.6098 30.2173 35.4397 31.1221 35.9099C31.9964 36.3642 33.0366 36.4671 33.9414 36.4431C34.8547 36.4188 35.6859 36.2627 36.1768 36.1541C39.4519 35.4284 42.5716 34.1875 45.0381 33.2009C52.1231 30.3663 55.9096 27.5165 57.1934 26.3904L57.1924 26.3894C57.3176 26.2826 57.4395 26.172 57.5566 26.0564L57.5684 26.0447C57.769 25.8331 58.0127 25.5195 58.0127 25.0671C58.0125 24.427 57.4656 24.0812 56.9434 23.8953H56.9443L56.7422 23.8162L56.7266 23.8103L56.7119 23.8054L55.6816 23.49C50.4707 21.9539 44.3796 21.071 37.8701 21.071L37.4824 21.072Z" fill="white" stroke="white"/>
</svg>
