<?xml version="1.0" encoding="UTF-8"?>
<!DOCTYPE svg PUBLIC "-//W3C//DTD SVG 1.1//EN" "http://www.w3.org/Graphics/SVG/1.1/DTD/svg11.dtd">
<!-- Creator: CorelDRAW 2019 (64-Bit) -->
<svg xmlns="http://www.w3.org/2000/svg" xml:space="preserve" width="180.157mm" height="68.7472mm" version="1.1" style="shape-rendering:geometricPrecision; text-rendering:geometricPrecision; image-rendering:optimizeQuality; fill-rule:evenodd; clip-rule:evenodd"
viewBox="0 0 174.6843 66.6588"
 xmlns:xlink="http://www.w3.org/1999/xlink"
 xmlns:xodm="http://www.corel.com/coreldraw/odm/2003">
 <defs>
  <style type="text/css">
   <![CDATA[
    .fil0 {fill:#090A09}
    .fil1 {fill:url(#id0)}
    .fil5 {fill:url(#id1)}
    .fil2 {fill:url(#id2)}
    .fil7 {fill:url(#id3)}
    .fil4 {fill:url(#id4)}
    .fil6 {fill:url(#id5)}
    .fil3 {fill:url(#id6)}
    .fil8 {fill:url(#id7)}
   ]]>
  </style>
  <linearGradient id="id0" gradientUnits="userSpaceOnUse" x1="44.921" y1="15.8835" x2="44.921" y2="47.3816">
   <stop offset="0" style="stop-opacity:1; stop-color:#E7E3E1"/>
   <stop offset="0.0117647" style="stop-opacity:1; stop-color:#DED9D6"/>
   <stop offset="0.258824" style="stop-opacity:1; stop-color:#7C757A"/>
   <stop offset="0.521569" style="stop-opacity:1; stop-color:#F5F6F7"/>
   <stop offset="0.878431" style="stop-opacity:1; stop-color:#6E666B"/>
   <stop offset="1" style="stop-opacity:1; stop-color:#D1D2D1"/>
   <stop offset="1" style="stop-opacity:1; stop-color:#9F9EA1"/>
  </linearGradient>
  <linearGradient id="id1" gradientUnits="userSpaceOnUse" xlink:href="#id0" x1="127.3427" y1="6.991" x2="127.3427" y2="51.3199">
  </linearGradient>
  <linearGradient id="id2" gradientUnits="userSpaceOnUse" xlink:href="#id0" x1="127.3427" y1="15.8835" x2="127.3427" y2="47.3816">
  </linearGradient>
  <linearGradient id="id3" gradientUnits="userSpaceOnUse" xlink:href="#id0" x1="87.3421" y1="-0.3399" x2="87.3421" y2="65.259">
  </linearGradient>
  <linearGradient id="id4" gradientUnits="userSpaceOnUse" xlink:href="#id0" x1="44.921" y1="6.991" x2="44.921" y2="51.3198">
  </linearGradient>
  <linearGradient id="id5" gradientUnits="userSpaceOnUse" xlink:href="#id0" x1="86.1318" y1="6.991" x2="86.1318" y2="51.3198">
  </linearGradient>
  <linearGradient id="id6" gradientUnits="userSpaceOnUse" xlink:href="#id0" x1="86.1318" y1="15.8835" x2="86.1318" y2="47.3816">
  </linearGradient>
  <linearGradient id="id7" gradientUnits="userSpaceOnUse" xlink:href="#id0" x1="87.3421" y1="53.6766" x2="87.3421" y2="6.1528">
  </linearGradient>
 </defs>
 <g id="Layer_x0020_1">
  <metadata id="CorelCorpID_0Corel-Layer"/>
  <g id="_705000656">
   <path class="fil0" d="M174.6843 33.3294c0,2.801 -0.7929,5.0932 -2.2118,7.4531 -1.8639,3.0998 -4.2946,5.396 -7.1257,7.5407 -3.7887,2.8703 -7.8636,5.0253 -12.19,6.9175 -5.3475,2.3387 -10.8266,4.1144 -16.4617,5.5872 -15.701,4.103 -33.207,5.8308 -49.3528,5.8308 -16.1463,0 -33.6529,-1.7279 -49.354,-5.8312 -5.6351,-1.4725 -11.1139,-3.2485 -16.4612,-5.5872 -4.3264,-1.8923 -8.4012,-4.0473 -12.1896,-6.9171 -2.8314,-2.1451 -5.262,-4.441 -7.1257,-7.5407 -1.4189,-2.3599 -2.2118,-4.652 -2.2118,-7.4531 0,-2.801 0.7929,-5.0932 2.2119,-7.4531 1.8636,-3.0998 4.2943,-5.396 7.1257,-7.5407 3.7887,-2.8703 7.8635,-5.0253 12.19,-6.9175 5.3474,-2.3387 10.8265,-4.1143 16.4616,-5.5872 15.701,-4.103 33.2069,-5.8308 49.353,-5.8308 16.1461,0 33.6528,1.7278 49.3538,5.8311 5.6351,1.473 11.1139,3.2486 16.4614,5.5872 4.3259,1.8923 8.401,4.0473 12.1897,6.9172 2.8312,2.1447 5.2618,4.441 7.1254,7.5407 1.4189,2.3599 2.2118,4.652 2.2118,7.4531z"/>
   <path class="fil1" d="M29.3037 44.9351c-1.3902,0 -2.5209,-1.1308 -2.5209,-2.5209l0 -6.5635 19.8606 0c2.1924,0 3.9755,-1.7834 3.9755,-3.9754l0 -4.8977c0,-1.0159 -0.8265,-1.8423 -1.8424,-1.8423l-14.648 0 0 -6.5635c0,-1.3901 1.1309,-2.521 2.5208,-2.521l23.8889 0c1.3901,0 2.5209,1.1309 2.5209,2.521l0 16.9579c0,5.1859 -4.2192,9.4052 -9.4052,9.4052l-24.3503 0z"/>
   <path class="fil2" d="M118.6098 44.9351c-5.1862,0 -9.4055,-4.2193 -9.4055,-9.4052l0 -10.0736c0,-5.186 4.2193,-9.4053 9.4055,-9.4053l24.3503 0c1.3902,0 2.521,1.1309 2.521,2.521l0 6.5635 -20.2487 0c-1.9784,0 -3.5877,1.6094 -3.5877,3.5878l0 3.54c0,1.9782 1.6093,3.5875 3.5877,3.5875l20.2487 0 0 6.5635c0,1.3901 -1.1308,2.5209 -2.521,2.5209l-24.3503 0z"/>
   <path class="fil3" d="M96.5764 44.9351c-1.9163,0 -3.6765,-1.1229 -4.4845,-2.8606l-5.1608 -11.1032 -1.5985 0 -5.1611 11.1032c-0.8076,1.7377 -2.5678,2.8606 -4.4839,2.8606l-11.0802 0 12.0964 -26.0232c0.8078,-1.7379 2.568,-2.861 4.4843,-2.861l9.8875 0c1.9163,0 3.6765,1.123 4.4841,2.861l12.0962 26.0232 -11.0796 0z"/>
   <path class="fil4" d="M27.4613 42.4141c0,1.0172 0.8248,1.8423 1.8424,1.8423 8.1168,0 16.2336,0 24.3503,0 4.8197,0 8.7267,-3.907 8.7267,-8.7266 0,-5.6525 0,-11.305 0,-16.9579 0,-1.0173 -0.8251,-1.8421 -1.8424,-1.8421 -7.9629,0 -15.9259,0 -23.8889,0 -1.0172,0 -1.8423,0.8248 -1.8423,1.8421 0,1.9616 0,3.9234 0,5.8847 4.6564,0 9.3129,0 13.9694,0 1.3926,0 2.5209,1.1288 2.5209,2.521 0,1.6326 0,3.265 0,4.8977 0,2.5706 -2.0834,4.654 -4.6541,4.654 -6.3941,0 -12.7879,0 -19.182,0 0,1.9617 0,3.9231 0,5.8848z"/>
   <path class="fil5" d="M144.8021 42.4141c0,-1.9617 0,-3.9231 0,-5.8848 -6.5231,0 -13.0465,0 -19.5699,0 -2.3561,0 -4.2661,-1.91 -4.2661,-4.2661 0,-1.18 0,-2.3602 0,-3.54 0,-2.3564 1.9101,-4.2665 4.2661,-4.2665 6.5233,0 13.0467,0 19.5699,0 0,-1.9614 0,-3.9231 0,-5.8847 0,-1.0173 -0.8247,-1.8421 -1.8422,-1.8421 -8.1166,0 -16.2333,0 -24.3501,0 -4.8196,0 -8.7265,3.9071 -8.7265,8.7267 0,3.3577 0,6.7153 0,10.0733 0,4.8196 3.9069,8.7266 8.7265,8.7266 8.1168,0 16.2335,0 24.3501,0 1.0175,0 1.8422,-0.8251 1.8422,-1.8423z"/>
   <path class="fil6" d="M92.7072 41.7882c0.7,1.5054 2.2092,2.4683 3.8692,2.4683 3.3385,0 6.6769,0 10.0158,0 -3.8827,-8.3531 -7.7655,-16.7058 -11.6478,-25.0586 -0.6999,-1.5053 -2.2092,-2.468 -3.8692,-2.468 -3.2955,0 -6.5913,0 -9.8871,0 -1.6601,0 -3.1691,0.9626 -3.8686,2.468 -3.8828,8.3528 -7.7655,16.7055 -11.6484,25.0586 3.3389,0 6.6775,0 10.0164,0 1.6596,0 3.1688,-0.9628 3.8686,-2.4683 1.7812,-3.8317 3.5623,-7.6638 5.3438,-11.4955 0.8213,0 1.6424,0 2.4641,0 1.7812,3.8317 3.5621,7.6638 5.3432,11.4955z"/>
   <path class="fil7" d="M160.7942 44.7631c-11.1276,6.6538 -23.4527,11.0599 -36.2766,12.9682 -3.4533,0.5137 -6.5857,0.2398 -9.8971,-0.8662 -1.4386,-0.4804 -2.8774,-0.9611 -4.3164,-1.4417 -2.2203,-0.7413 -4.4163,-1.0983 -6.7571,-1.0983 -10.8034,0 -21.6062,0 -32.4096,0 -2.3408,0 -4.537,0.357 -6.757,1.0983 -1.439,0.4806 -2.8778,0.9613 -4.3165,1.4417 -3.3115,1.106 -6.4437,1.3799 -9.8971,0.8662 -12.824,-1.9083 -25.1491,-6.3144 -36.2768,-12.9682 -3.4728,-2.077 -5.0626,-6.2686 -3.8402,-10.1262 1.5766,-4.9746 3.7922,-9.4371 6.8019,-13.7003 3.0625,-4.338 7.4644,-7.5503 12.5296,-9.1436 37.752,-11.8736 78.1697,-11.8736 115.9216,0 5.0652,1.5933 9.4672,4.8056 12.5297,9.1436 3.0098,4.2631 5.2254,8.7256 6.8018,13.7003 1.2225,3.8576 -0.3673,8.0492 -3.8403,10.1262zm11.6783 -18.8868l0 0c-1.8635,-3.0998 -4.2942,-5.396 -7.1254,-7.5407 -3.7887,-2.8699 -7.8638,-5.0249 -12.1897,-6.9172 -5.3475,-2.3386 -10.8266,-4.1143 -16.4614,-5.5872 -15.7014,-4.1033 -33.2077,-5.8311 -49.3538,-5.8311 -16.146,0 -33.652,1.7278 -49.353,5.8308 -5.6351,1.473 -11.1143,3.2485 -16.4616,5.5872 -4.3265,1.8922 -8.4013,4.0472 -12.19,6.9175 -2.8315,2.1447 -5.2621,4.441 -7.1257,7.5407 -1.419,2.3599 -2.2119,4.652 -2.2119,7.4531 0,2.801 0.7929,5.0932 2.2118,7.4531 1.8636,3.0998 4.2943,5.3957 7.1257,7.5407 3.7884,2.8698 7.8632,5.0248 12.1896,6.9171 5.3473,2.3387 10.8261,4.1148 16.4612,5.5872 15.7011,4.1033 33.2077,5.8312 49.354,5.8312 16.1457,0 33.6518,-1.7279 49.3528,-5.8312 5.6351,-1.4725 11.1143,-3.2481 16.4617,-5.5869 4.3264,-1.8922 8.4013,-4.0472 12.19,-6.9175 2.8311,-2.1447 5.2618,-4.441 7.1257,-7.5407 1.4189,-2.3599 2.2118,-4.652 2.2118,-7.4531 0,-2.801 -0.7929,-5.0932 -2.2118,-7.4531z"/>
   <path class="fil8" d="M157.6873 43.324c-10.6218,5.9166 -21.4541,9.6874 -33.454,11.6461 -3.2342,0.5278 -6.1585,0.2924 -9.2668,-0.7453 -1.4826,-0.4953 -2.9649,-0.9902 -4.4478,-1.4856 -1.8464,-0.6168 -3.6837,-0.9403 -5.6295,-0.9919 -5.8486,-0.1548 -11.6965,-0.2324 -17.5469,-0.2324 -5.8506,0 -11.6985,0.0777 -17.5471,0.2324 -1.9458,0.0516 -3.7832,0.3751 -5.6295,0.9919 -1.4828,0.4954 -2.9653,0.9903 -4.4479,1.4856 -3.1082,1.0378 -6.0325,1.2731 -9.2668,0.7453 -11.9998,-1.9587 -22.8321,-5.7295 -33.4539,-11.6461 -2.736,-1.5242 -3.9379,-4.8258 -2.8218,-7.7521 1.9516,-5.1165 4.4111,-9.8519 7.4749,-14.3908 2.3268,-3.4472 5.7001,-6.0551 9.6221,-7.4387 32.4449,-11.4454 79.695,-11.4454 112.1398,0 3.922,1.3836 7.2954,3.9915 9.6222,7.4387 3.0638,4.5389 5.5232,9.2743 7.4749,14.3908 1.1158,2.9263 -0.0858,6.2279 -2.8219,7.7521zm6.9471 -8.6285l0 0c-1.5764,-4.9745 -3.792,-9.4374 -6.8018,-13.7006 -3.0625,-4.3376 -7.4645,-7.55 -12.5297,-9.1432 -37.7519,-11.874 -78.1696,-11.874 -115.9216,0 -5.0652,1.5933 -9.4671,4.8056 -12.5296,9.1432 -3.0097,4.2631 -5.2253,8.726 -6.8019,13.7006 -1.2224,3.8573 0.3674,8.0493 3.8402,10.1259 11.1278,6.6541 23.4528,11.0602 36.2768,12.9687 3.4534,0.5137 6.5857,0.2394 9.8971,-0.8666 1.4386,-0.4806 2.8776,-0.9609 4.3165,-1.4414 2.22,-0.7417 4.4162,-1.0987 6.7575,-1.0987 10.8029,0 21.6057,0 32.4091,0 2.3408,0 4.537,0.357 6.7571,1.0987 1.439,0.4805 2.8777,0.9608 4.3164,1.4414 3.3115,1.106 6.4438,1.3803 9.8971,0.8666 12.8239,-1.9085 25.1491,-6.3146 36.2766,-12.9687 3.473,-2.0766 5.0628,-6.2686 3.8403,-10.1259z"/>
  </g>
 </g>
</svg>
