<svg width="63" height="63" viewBox="0 0 63 63" fill="none" xmlns="http://www.w3.org/2000/svg">
<path d="M31.4971 6.7948C43.7929 6.80791 51.7049 9.2691 56.5732 14.4969V14.496C60.1854 18.3705 62.4999 23.8081 62.5 31.1688C62.5 33.2054 62.2466 36.8228 60.9717 40.5936C59.7374 44.2443 57.5558 48.0114 53.7451 50.6483L53.3711 50.9003C48.4806 54.0954 42.1425 56.1883 31.4971 56.204C20.8572 56.1882 14.5166 54.0953 9.62891 50.9003C5.58454 48.2549 3.30112 44.3628 2.02734 40.5946C0.752805 36.8242 0.5 33.2069 0.5 31.1688C0.500096 24.0155 2.65619 18.7248 6.09082 14.8641L6.42676 14.495C11.295 9.26719 19.2067 6.80799 31.4971 6.7948ZM7.53516 26.662C7.30027 28.2316 7.1758 29.9336 7.17578 31.7255V31.7303C7.1966 34.2664 7.56724 36.7866 8.27734 39.2196L8.42383 39.705C8.9434 41.3767 9.67592 42.9746 10.6025 44.4598V44.4608C11.5999 46.0652 12.879 47.4768 14.377 48.6278L14.3789 48.6298C16.3332 50.1151 18.6077 51.1595 21.3223 51.8348V51.8358C24.084 52.5262 27.4198 52.8608 31.4971 52.8661H31.498C35.5779 52.8608 38.9105 52.5261 41.6797 51.8358C44.384 51.1604 46.6589 50.1157 48.6182 48.6307L48.6201 48.6288C50.1219 47.4788 51.4037 46.067 52.4043 44.4618C53.3299 42.9768 54.0612 41.379 54.5801 39.7079C55.7013 36.1757 55.8242 32.9533 55.8242 31.7235C55.8242 29.9345 55.7024 28.2339 55.4619 26.66L55.3545 25.9589L54.7305 26.2958C51.8832 27.8315 49.1827 28.6035 46.75 29.2997L46.1865 29.4559L46.1826 29.4579C42.9677 30.3825 40.348 31.5826 38.208 33.1356L37.7881 33.4491C35.1059 35.4976 33.1159 38.3192 32.0859 41.5331C31.9608 41.9043 31.8527 42.1399 31.7432 42.2802C31.6549 42.3932 31.5892 42.4188 31.4971 42.4188C31.4117 42.4188 31.3465 42.3946 31.2568 42.2802C31.1471 42.14 31.0372 41.9038 30.9141 41.5331L30.9131 41.5311L30.6875 40.8944C30.1355 39.4255 29.4168 38.0737 28.541 36.868C27.6193 35.5916 26.4969 34.4423 25.2148 33.4491L25.2129 33.4481L24.791 33.1327C22.6496 31.5823 20.0324 30.3825 16.8174 29.4579L16.8135 29.4569L16.249 29.2987C13.8147 28.6028 11.1153 27.8309 8.2666 26.2958L7.64062 25.9579L7.53516 26.662ZM31.4971 9.5116C26.7847 9.51689 22.8938 10.08 19.627 11.244C18.0866 11.7767 16.6214 12.5069 15.2686 13.4159V13.4169C13.9992 14.2726 12.8569 15.3031 11.876 16.4784C11.2 17.2815 10.5892 18.159 10.0654 19.077L9.82715 19.496L10.2363 19.7499C10.5186 19.9255 10.8045 20.0959 11.0938 20.2596V20.2587C13.687 21.7597 16.4742 22.8562 19.123 23.9032V23.9042L20.0293 24.2606L20.0312 24.2616C21.9681 25.0168 23.784 26.0514 25.4209 27.3329V27.3339C27.5024 28.9703 29.2228 31.0197 30.4736 33.3534L30.4756 33.3573C30.6386 33.6554 30.7857 33.8683 30.9238 34.0135C31.0485 34.1446 31.241 34.2996 31.4971 34.2997C31.7481 34.2997 31.941 34.1527 32.0713 34.0184C32.2121 33.8733 32.36 33.6607 32.5234 33.3632L32.5264 33.3583C33.7768 31.024 35.4967 28.9739 37.5781 27.3368C39.2138 26.0553 41.0283 25.0203 42.9639 24.2645L42.9658 24.2635L43.8711 23.9061C46.5275 22.8608 49.3108 21.7646 51.9102 20.2626V20.2616C52.2014 20.0929 52.4862 19.9224 52.7637 19.7499L53.1738 19.495L52.9336 19.077C52.4077 18.1601 51.8001 17.2824 51.124 16.4764H51.125C50.1437 15.3017 49.001 14.272 47.7314 13.4169L47.7305 13.4159C46.3753 12.5067 44.9071 11.7767 43.3643 11.245C40.0985 10.0797 36.2126 9.51689 31.498 9.5116H31.4971Z" fill="white" stroke="white"/>
</svg>
