<svg width="52" height="52" viewBox="0 0 52 52" fill="none" xmlns="http://www.w3.org/2000/svg">
<path d="M26 0C40.3498 0 52 11.6502 52 26C52 40.3498 40.3498 52 26 52C11.6502 52 0 40.3498 0 26C0 11.6502 11.6502 0 26 0ZM7.03083 38.0012C9.05514 41.2008 11.8559 43.8364 15.1725 45.6627C18.4891 47.489 22.2138 48.4467 26 48.4467C33.9755 48.4467 40.9868 44.278 44.9692 38.0012L26 30.7732L7.03083 38.0012ZM30.134 23.6123L45.8792 36.4282C47.5711 33.2129 48.4525 29.6332 48.4467 26C48.4467 13.9165 38.8765 4.0495 26.91 3.57067L30.134 23.6123ZM25.09 3.57067C13.1235 4.0495 3.55333 13.9165 3.55333 26C3.55333 29.7635 4.48067 33.3103 6.12083 36.4282L21.866 23.6123L25.09 3.57067Z" fill="white"/>
</svg>
