<svg width="74" height="74" viewBox="0 0 74 74" fill="none" xmlns="http://www.w3.org/2000/svg">
<path d="M16.2491 16.1412V14.8308C16.7425 14.765 17.2265 14.7033 17.7014 14.6458C18.244 14.5821 18.7867 14.5235 19.3294 14.47C19.6809 14.433 19.7703 14.5194 19.7826 14.8863V15.3272C19.7826 15.654 19.6994 15.7465 19.3725 15.7866C18.6264 15.8791 17.8802 15.9562 17.134 16.0425L16.2491 16.1412ZM51.7383 15.4166V16.2152C51.7383 16.4804 51.6211 16.6191 51.3251 16.5975C50.3401 16.5317 49.3554 16.4598 48.3713 16.3817C48.1061 16.3601 47.9766 16.2491 47.9674 15.9994C47.9495 15.4239 47.9495 14.8481 47.9674 14.2727C47.9674 14.0075 48.103 13.9027 48.3744 13.9243C49.361 13.9942 50.3467 14.0723 51.3313 14.1586C51.6396 14.1864 51.729 14.3004 51.7414 14.6211C51.7455 14.8945 51.7445 15.1597 51.7383 15.4166ZM62.1168 11.2048C62.1507 12.5799 62.2062 13.8965 62.2155 15.2131C62.2155 17.3159 62.2586 19.4188 62.2155 21.5185C62.1522 26.9691 61.4138 32.3908 60.017 37.6598C58.107 44.7118 54.3745 51.1369 49.1945 56.2893C45.7601 59.7143 41.773 62.536 37.4008 64.6359C37.2815 64.7023 37.1473 64.7371 37.0108 64.7371C36.8742 64.7371 36.74 64.7023 36.6207 64.6359C28.1607 60.6201 21.2724 53.9107 17.0354 45.5593C15.3968 42.289 14.1715 38.8276 13.3878 35.2548C12.7916 32.5681 12.3673 29.8462 12.1175 27.1055C11.8044 23.4329 11.6912 19.746 11.7783 16.061C11.7968 14.5964 11.843 13.1319 11.877 11.6673C11.877 11.5224 11.8955 11.3774 11.9047 11.1986C28.5252 8.39988 45.4969 8.40196 62.1168 11.2048ZM39.7503 56.7333C40.0586 56.1659 40.367 55.6819 40.6167 55.1916C40.8651 54.7177 41.2058 54.2984 41.6188 53.9583C44.0053 51.9911 46.3856 50.0147 48.7783 48.0599C49.11 47.812 49.3453 47.4567 49.4443 47.0547C49.8782 45.2871 50.1547 43.4845 50.2706 41.6681C50.3626 40.1901 50.3307 38.707 50.175 37.2343C50.1428 36.9106 50.0259 36.6011 49.8359 36.337C48.5681 34.5258 47.1632 32.8147 45.6333 31.2187C45.4564 31.0238 45.216 30.8981 44.955 30.8641C44.9735 31.0029 44.9796 31.1169 45.0043 31.2279C45.2818 32.5322 45.5685 33.8303 45.8368 35.1345C45.9004 35.438 46.0541 35.7152 46.2777 35.93C47.0338 36.6612 47.7202 37.4612 48.3281 38.3196C48.608 38.7062 48.7698 39.1657 48.7937 39.6424C48.929 41.9324 48.8816 44.2295 48.6519 46.512C48.6319 46.7234 48.5684 46.9284 48.4655 47.1141C48.3625 47.2998 48.2224 47.4622 48.0537 47.5912C45.8954 49.4412 43.737 51.2912 41.6034 53.1628C41.0324 53.6118 40.5609 54.1746 40.219 54.8154C40.219 54.837 40.1696 54.8463 40.1388 54.8617C39.6943 53.8845 39.5964 52.7848 39.8613 51.7444C40.2282 50.5265 40.5427 49.2963 40.8788 48.0691L41.0021 47.5665L40.9127 47.5295C40.8449 47.6529 40.7822 47.7782 40.7246 47.9057C40.2991 48.88 39.8675 49.8544 39.4605 50.8379C39.1675 51.5502 38.9116 52.2748 38.6341 52.9963C38.5615 53.1739 38.5258 53.3644 38.5289 53.5563C38.5321 53.7481 38.5742 53.9373 38.6526 54.1124C38.961 54.8309 39.2446 55.5616 39.5406 56.2893C39.593 56.4034 39.6547 56.5174 39.7503 56.7333ZM33.1304 32.1776H32.9762C32.9947 32.5229 33.004 32.8744 33.0379 33.2198C33.081 33.6915 33.1427 34.1448 33.1951 34.6289C33.2427 34.9694 33.1649 35.3157 32.9762 35.6032C32.7542 35.9547 32.5569 36.3185 32.3287 36.6639C30.6546 39.1756 28.8343 41.5868 26.8774 43.885C26.5761 44.2124 26.3833 44.6248 26.3255 45.0659C26.2412 45.8882 26.1507 46.7104 26.0541 47.5326C26.0133 47.8894 26.0984 48.2493 26.2946 48.5501C26.5783 48.9818 26.8496 49.4227 27.158 49.8389C28.7949 52.0504 30.565 54.1602 32.4582 56.1567C33.0234 56.8076 33.7187 57.3328 34.4994 57.6984C34.7584 57.8063 35.002 57.9512 35.2548 58.0714L35.5138 58.1547L35.5693 58.0714C35.4265 57.9114 35.2673 57.7668 35.0945 57.6398C34.4789 57.2567 33.9257 56.7815 33.4541 56.2307C31.644 54.1961 29.9525 52.0589 28.3882 49.8297C28.0583 49.3579 27.7715 48.8584 27.4632 48.3713C27.2862 48.0971 27.2068 47.7712 27.2381 47.4463C27.2998 46.8563 27.3656 46.2684 27.4355 45.6826C27.4872 45.3736 27.6466 45.0928 27.8856 44.8902C28.4201 44.3969 28.9422 43.8943 29.452 43.3824C30.4337 42.6229 31.1633 41.5848 31.5455 40.4039C32.2794 38.8376 32.9485 37.2435 33.6484 35.6618C33.7886 35.4139 33.8387 35.1253 33.7902 34.8447C33.5723 33.9402 33.3524 33.0461 33.1304 32.1622V32.1776ZM36.1243 22.3942V22.5206C36.3555 22.5206 36.5868 22.5484 36.818 22.5391C38.1624 22.4939 39.5067 22.4415 40.851 22.3819C41.325 22.3444 41.8007 22.4293 42.2324 22.6285C42.9004 22.9389 43.5747 23.2411 44.255 23.535C44.5245 23.6498 44.809 23.7256 45.0999 23.7601C45.658 23.8249 46.2253 23.8187 46.7803 23.8896C47.117 23.9213 47.4452 24.0143 47.7485 24.164C48.9355 24.83 50.101 25.5269 51.2696 26.2268C51.5355 26.4076 51.8559 26.4904 52.1761 26.4611C51.3159 25.6379 50.5173 24.8732 49.7095 24.1116C49.6539 24.0634 49.5929 24.022 49.5275 23.9883C47.6727 22.9126 45.7738 21.9148 43.8357 20.9974C43.4157 20.8132 42.965 20.7086 42.5068 20.6891C41.6065 20.6552 40.7061 20.6028 39.8027 20.5719C37.2752 20.4872 34.745 20.5438 32.2239 20.7415C32.0306 20.7403 31.8409 20.7942 31.6771 20.8968C31.5132 20.9995 31.3821 21.1467 31.2989 21.3212C31.0273 21.816 30.6543 22.2478 30.2043 22.5884C29.3795 23.3073 28.5047 23.9668 27.5865 24.5618C27.4748 24.6162 27.3751 24.6925 27.2936 24.7863C27.212 24.8801 27.1501 24.9893 27.1117 25.1075C27.5403 24.8701 27.9103 24.6574 28.2865 24.4569L33.0101 21.9101C33.4094 21.6836 33.8586 21.5596 34.3175 21.5494C35.0575 21.5494 35.7944 21.4599 36.5344 21.4476C38.3844 21.4229 40.2621 21.4168 42.1245 21.4075C42.4405 21.4035 42.7495 21.5007 43.0063 21.685C40.7215 21.8608 38.4152 22.0519 36.1243 22.3788V22.3942ZM20.3746 32.0419C20.382 32.5121 20.21 32.9674 19.8936 33.3154C19.5853 33.6237 19.2955 33.9721 19.0087 34.3113C18.8052 34.5518 18.7898 34.6597 18.9748 34.9002C19.3366 35.3689 19.7127 35.8262 20.1033 36.2723C20.2309 36.3769 20.3719 36.464 20.5226 36.5313C20.6429 35.9886 20.757 35.5169 20.8556 35.0389C20.8717 34.8995 20.9349 34.7698 21.0346 34.6711C21.1344 34.5725 21.2649 34.5108 21.4045 34.4963C22.2647 34.339 23.1157 34.154 23.9729 33.9875C24.4878 33.8858 25.0058 33.7964 25.5793 33.6946L25.271 33.3092C24.9626 33.0009 24.6358 32.6925 24.346 32.3503C24.1904 32.1525 23.9896 31.995 23.7605 31.8909C23.5314 31.7868 23.2807 31.7392 23.0294 31.7521C22.7096 31.7419 22.3906 31.7152 22.0735 31.6719L22.0427 31.5856C22.1481 31.4971 22.2594 31.4157 22.3757 31.342C22.4705 31.3012 22.5672 31.2652 22.6655 31.2341L27.1333 29.5383C27.5821 29.3643 27.9488 29.0273 28.16 28.5948C28.1312 28.5923 28.1021 28.5957 28.0745 28.6047C28.047 28.6137 28.0215 28.6281 27.9997 28.6472C27.4738 29.0896 26.8315 29.3712 26.1497 29.4581C25.9308 29.5013 25.718 29.5629 25.5022 29.6154C25.2462 29.6909 24.9721 29.6768 24.7252 29.5753C24.5755 29.5192 24.4128 29.5074 24.2565 29.5414C23.9482 29.5938 23.6245 29.6863 23.3069 29.7572C23.2205 29.7757 23.128 29.7788 22.9646 29.7973C23.1715 29.5489 23.4362 29.3551 23.7355 29.233C24.0438 29.1282 24.3521 28.9925 24.6605 28.8908C24.7698 28.8716 24.8687 28.8137 24.9389 28.7276C25.0091 28.6416 25.0459 28.5331 25.0428 28.4221C25.0582 28.1415 25.1353 27.8671 25.1661 27.5865C25.1728 27.491 25.2017 27.3984 25.2504 27.316C25.2991 27.2336 25.3663 27.1636 25.4467 27.1117C25.8167 26.8363 26.1805 26.5567 26.5382 26.273C26.6081 26.2361 26.6681 26.183 26.7132 26.1181C26.7583 26.0531 26.7871 25.9783 26.7972 25.8999C26.2484 26.2268 25.7643 26.5413 25.2555 26.8249C24.371 27.282 23.6176 27.9569 23.0664 28.7859C22.8946 29.0227 22.6865 29.2308 22.4497 29.4026C21.3829 30.2259 20.2914 31.0275 19.24 31.8693C18.9381 32.1089 18.6594 32.3762 18.4075 32.6679C18.0991 33.007 18.1793 33.3955 18.5986 33.6792L19.2338 33.2198C19.5799 33.0175 19.8628 32.7228 20.0509 32.3688C20.0971 32.2208 20.2605 32.1406 20.3746 32.0419ZM43.3393 26.8465C43.8685 26.9646 44.4183 26.954 44.9426 26.8157C45.3311 26.6769 45.7505 26.6338 46.1482 26.5074C46.3581 26.4357 46.5834 26.4219 46.8005 26.4674C47.0175 26.513 47.2182 26.6163 47.3815 26.7664C48.2654 27.4899 49.1565 28.2011 50.0548 28.9C50.3368 29.1118 50.6407 29.2927 50.9613 29.4396C51.5502 29.7171 52.1545 29.9607 52.7558 30.2135C52.909 30.271 53.0442 30.368 53.1477 30.4948C53.2511 30.6215 53.3191 30.7734 53.3447 30.935C53.3663 31.0522 53.4064 31.1632 53.4249 31.2804C53.6006 32.5137 53.7671 33.747 53.9521 34.9804C54.0718 35.7206 53.9427 36.4796 53.5852 37.1387C53.135 38.0051 52.6941 38.8746 52.2316 39.7349C52.1387 39.9363 51.9966 40.1113 51.8185 40.2436C51.5587 40.3821 51.3473 40.5964 51.2123 40.8581C51.0774 41.1197 51.0253 41.4162 51.063 41.7082C51.0657 41.9481 51.0544 42.188 51.0291 42.4266C51.1655 42.3414 51.2838 42.2304 51.3775 42.0998C52.5859 40.4337 53.6358 38.6582 54.5133 36.7964C54.5913 36.6376 54.6413 36.4666 54.6613 36.2908C54.8733 34.0931 54.7893 31.877 54.4115 29.7017C54.3911 29.5559 54.3402 29.416 54.2621 29.2911C54.184 29.1663 54.0805 29.0593 53.9583 28.9771C52.0514 27.6189 50.0293 26.4304 47.915 25.4251C47.7196 25.3209 47.503 25.2628 47.2817 25.2553C47.0604 25.2478 46.8404 25.2911 46.6385 25.3819C45.6487 25.8136 44.6528 26.2299 43.663 26.6584C43.5514 26.7145 43.4433 26.7773 43.3393 26.8465ZM37.7893 58.5062C37.8326 58.0585 37.7526 57.6075 37.558 57.2019C37.3604 56.7877 37.1814 56.3649 37.0215 55.9347C36.4994 54.5986 35.9855 53.2625 35.4799 51.9264C35.3625 51.6233 35.315 51.2976 35.3411 50.9736C35.4244 50.0733 35.52 49.1729 35.6895 48.288C36.1397 45.92 36.633 43.5613 37.1048 41.1964C37.142 40.6728 37.0674 40.1472 36.8859 39.6547C36.8004 39.7631 36.7337 39.885 36.6885 40.0154C36.4141 40.7339 36.1305 41.4492 35.8684 42.1738C35.0371 44.4051 34.3097 46.6738 33.6885 48.9725C33.5201 49.5715 33.5704 50.2109 33.8303 50.7763C34.966 53.3317 36.2297 55.8282 37.6166 58.2564L37.7985 58.5062H37.7893ZM25.7612 27.5526L25.7951 27.6574C26.1035 27.6574 26.4334 27.679 26.751 27.6574C27.476 27.6661 28.1999 27.5947 28.9093 27.4447C29.8127 27.1672 30.7161 26.8959 31.6134 26.5968C31.8081 26.5359 31.9772 26.4123 32.0944 26.2453C32.5815 25.4529 33.0379 24.6419 33.5004 23.8341C33.5202 23.7775 33.5316 23.7183 33.5343 23.6584C32.9063 23.5678 32.2662 23.6119 31.6565 23.7879C30.6432 24.1949 29.64 24.6265 28.6472 25.0829C28.4019 25.2136 28.1841 25.3906 28.0059 25.6039C27.7128 25.9167 27.4419 26.2495 27.195 26.5999C26.9547 26.9578 26.6004 27.224 26.1898 27.3553C26.0421 27.41 25.8988 27.476 25.7612 27.5526ZM25.8414 34.4254L25.8229 34.5179C25.9524 34.5734 26.0829 34.6258 26.2145 34.6751C26.9257 34.93 27.6348 35.1869 28.342 35.4459C28.4611 35.4751 28.5715 35.5327 28.6636 35.6137C28.7557 35.6947 28.8269 35.7968 28.8711 35.9112C28.9153 36.0257 28.9312 36.1491 28.9175 36.271C28.9037 36.3929 28.8607 36.5097 28.7921 36.6114C28.3078 37.5272 27.7324 38.3918 27.0747 39.1922C26.9452 39.3522 26.7778 39.4773 26.5875 39.556C25.9524 39.7904 25.2987 39.9846 24.6543 40.2066C24.5585 40.2436 24.454 40.2516 24.3536 40.2297C24.2533 40.2077 24.1617 40.1568 24.09 40.0833C23.8804 39.8942 23.6676 39.7102 23.4518 39.5314C23.3778 39.4697 23.2945 39.4234 23.1774 39.3402C23.08 39.8647 23.1204 40.4054 23.2945 40.9096C23.4859 41.3898 23.6416 41.8834 23.7601 42.3865C23.8742 42.7997 23.9544 43.2221 24.0685 43.6384C24.1455 43.9282 24.2288 43.9991 24.5125 43.9467C24.9452 43.854 25.3708 43.7303 25.7859 43.5767C25.9981 43.4568 26.1913 43.3062 26.3594 43.1296C26.2572 43.0825 26.1426 43.0696 26.0325 43.0926C25.6841 43.1697 25.3419 43.2591 24.9935 43.3239C24.645 43.3886 24.6296 43.3239 24.568 43.034C24.484 42.5983 24.4058 42.1614 24.3336 41.7236C24.2596 41.2858 24.2874 41.2981 24.6944 41.1594L27.38 40.2344C27.6117 40.1781 27.8127 40.0345 27.9411 39.8335C28.5989 38.6762 29.2536 37.5169 29.9052 36.3555C29.9722 36.2423 29.9943 36.108 29.9669 35.9794C29.9218 35.7838 29.826 35.6035 29.689 35.4568C29.5521 35.3101 29.3788 35.2021 29.1868 35.1438C28.2618 34.9218 27.3368 34.6782 26.3871 34.4562C26.2065 34.4298 26.0238 34.4195 25.8414 34.4254ZM40.5612 32.6093C40.5365 32.4613 40.5273 32.3749 40.5088 32.3009L39.96 29.7017C39.9049 29.5467 39.8907 29.3802 39.9187 29.2182C39.9468 29.0561 40.0162 28.9041 40.1203 28.7767C40.2676 28.5925 40.3996 28.3966 40.515 28.1909C41.2365 27.0192 41.2272 27.3614 40.9035 25.8444C40.8962 25.786 40.8806 25.7289 40.8572 25.6749C40.8298 25.6062 40.7839 25.5464 40.7246 25.5022C40.3896 25.2546 39.9727 25.1443 39.5591 25.1939C38.3474 25.4529 37.1264 25.6779 35.9115 25.9246C35.6701 25.9649 35.4504 26.0884 35.2905 26.2736C35.1305 26.4589 35.0405 26.6943 35.0359 26.939C35.2949 26.9884 35.557 27.0192 35.8129 27.087C36.1726 27.1751 36.5518 27.1358 36.8859 26.976C37.6351 26.6677 38.4029 26.3964 39.1521 26.0849C39.2811 26.0309 39.4201 26.0048 39.5599 26.0085C39.6997 26.0123 39.8371 26.0457 39.963 26.1065C40.0695 26.1594 40.1639 26.2337 40.2403 26.3248C40.3167 26.4159 40.3735 26.5218 40.4071 26.6359C40.4407 26.7499 40.4503 26.8697 40.4355 26.9876C40.4206 27.1056 40.3815 27.2192 40.3207 27.3214C39.9918 27.7777 39.6537 28.2258 39.3063 28.6657C39.2303 28.7468 39.1789 28.8478 39.1581 28.957C39.1374 29.0662 39.1481 29.179 39.1891 29.2824C39.4707 30.1683 39.7452 31.0573 40.0124 31.9494C40.0539 32.0911 40.124 32.2228 40.2184 32.3363C40.3128 32.4498 40.4295 32.5427 40.5612 32.6093ZM26.495 16.3416L22.5268 16.6191V15.6633L26.0449 15.3889V14.7999L22.533 15.0528V14.1833L26.4858 13.8749C26.4858 13.7547 26.5105 13.6684 26.5105 13.582C26.5064 13.4789 26.4971 13.3759 26.4827 13.2737L21.8916 13.6129V17.2666L26.5166 16.9151L26.495 16.3416ZM38.85 16.0333H35.6895C35.3627 16.0333 35.2425 15.9007 35.2363 15.5677V14.1925C35.2363 13.6499 35.3072 13.5759 35.853 13.5759H39.2662V12.9808C39.1706 12.9808 39.0997 12.9561 39.0257 12.9561H35.8314C35.6688 12.9618 35.5069 12.9804 35.3473 13.0116C35.151 13.0242 34.9669 13.1114 34.8328 13.2552C34.6987 13.3991 34.6246 13.5888 34.6258 13.7855C34.5929 14.4803 34.5929 15.1751 34.6258 15.8699C34.6255 16.0517 34.6952 16.2267 34.8203 16.3587C34.9453 16.4907 35.1164 16.5695 35.298 16.579C35.4872 16.6133 35.6792 16.6298 35.8715 16.6284H39.109C39.2385 16.6284 39.3649 16.6099 39.5252 16.5975C39.5437 15.8668 39.556 15.1699 39.5252 14.4639H37V15.0528H38.85V16.0333ZM41.7421 13.6283L45.7505 13.7732V13.1874C44.2088 13.1134 42.6671 13.0239 41.1008 13.0209V16.6623L45.7751 16.8411L45.7505 16.2429L41.7575 16.0795V15.1638H43.549C44.1379 15.1638 44.7145 15.2686 45.2941 15.2162V14.6365L41.7483 14.4916L41.7421 13.6283ZM52.3642 15.4783V14.5533C52.3728 14.3436 52.3074 14.1377 52.1794 13.9714C52.0515 13.8051 51.8691 13.6891 51.6643 13.6437C51.5244 13.5978 51.3794 13.5689 51.2326 13.5574C50.3343 13.4854 49.4361 13.4176 48.5378 13.3539C48.3757 13.341 48.2128 13.341 48.0506 13.3539C47.582 13.4001 47.3384 13.6129 47.3199 14.0846C47.2952 14.7629 47.2952 15.4413 47.3199 16.1196C47.3142 16.3165 47.3832 16.5083 47.513 16.6564C47.6428 16.8045 47.8239 16.898 48.0198 16.9182C48.2237 16.9584 48.4295 16.9882 48.6365 17.0076C49.284 17.0611 49.9325 17.1104 50.582 17.1556C50.9348 17.1851 51.2889 17.1944 51.6427 17.1834C51.74 17.1885 51.8373 17.1728 51.928 17.1373C52.0187 17.1018 52.1008 17.0474 52.1688 16.9776C52.2368 16.9079 52.2892 16.8244 52.3223 16.7328C52.3555 16.6412 52.3687 16.5436 52.3611 16.4464C52.3827 16.1319 52.3704 15.8082 52.3704 15.4814L52.3642 15.4783ZM16.2183 16.7579C17.06 16.6592 17.837 16.5759 18.614 16.4804C18.9801 16.4422 19.3443 16.3877 19.7055 16.3169C19.8761 16.2915 20.0339 16.2118 20.1555 16.0896C20.2771 15.9674 20.3562 15.8093 20.3808 15.6386C20.4225 15.2584 20.4225 14.8749 20.3808 14.4947C20.3689 14.3368 20.2996 14.1888 20.186 14.0786C20.0723 13.9684 19.9223 13.9036 19.7641 13.8965C19.6064 13.8687 19.4458 13.8614 19.2862 13.8749C18.5668 13.9448 17.8473 14.0209 17.1279 14.1031C16.6222 14.1648 16.1083 14.2306 15.5862 14.3004V17.9573L16.2029 17.8833L16.2183 16.7579ZM28.7243 13.1658L28.0583 13.1997V15.7558C28.0583 16.5081 28.3204 16.7579 29.0789 16.7856H29.1683C30.1149 16.7486 31.0615 16.727 32.008 16.6715C32.7727 16.6253 33.0132 16.3478 33.0194 15.5708V13.3939C33.0153 13.2829 33.007 13.1637 32.9947 13.0363H32.378C32.378 13.1997 32.3565 13.3446 32.3534 13.4895V15.6201C32.3534 15.9839 32.2794 16.0672 31.9155 16.0857C30.9844 16.135 30.0532 16.1731 29.122 16.1998C28.7921 16.1998 28.712 16.1134 28.7058 15.7712C28.6996 15.4289 28.7058 15.0312 28.7058 14.6612L28.7243 13.1658ZM58.4014 14.285L53.5513 13.7454V14.3621L55.6603 14.5995V17.6397L56.3263 17.7291V14.6674L58.4014 14.8863V14.285ZM27.8764 37.2744L27.7808 37.1757L24.8516 39.593L24.8917 39.6763L26.4642 39.1213C26.5455 39.0861 26.6158 39.0296 26.6677 38.9579C27.0788 38.3987 27.4838 37.8376 27.8825 37.2744H27.8764ZM22.1537 36.041C21.9126 36.0728 21.6821 36.16 21.4804 36.2959C21.2787 36.4318 21.1113 36.6126 20.9913 36.8242L21.8608 37.8294C21.8939 37.7281 21.9216 37.6252 21.944 37.521C22.018 37.0524 22.0828 36.5868 22.1599 36.0379L22.1537 36.041ZM26.0325 28.1508L25.9925 28.9833C26.8774 28.8908 27.0161 28.7335 26.7818 28.1169L26.0325 28.1508ZM9.76179 9.20678C17.7985 7.80801 25.9303 7.02462 34.0862 6.86344C44.1822 6.68553 54.2722 7.46914 64.2196 9.20369C64.2196 9.31469 64.2566 9.40103 64.2597 9.48736C64.38 12.9499 64.4817 16.4094 64.4262 19.8751C64.3831 23.4379 64.1195 26.9947 63.6369 30.5249C63.0331 35.1058 61.8263 39.5867 60.0479 43.8511C56.5348 52.0948 50.6144 59.0856 43.0618 63.9082C41.2239 65.1056 39.3009 66.167 37.3083 67.084C37.2128 67.1328 37.1072 67.1581 37 67.1581C36.8928 67.1581 36.7871 67.1328 36.6916 67.084C30.8459 64.4514 25.6358 60.5907 21.4156 55.7644C17.1954 50.9382 14.064 45.2597 12.2346 39.1151C11.369 36.254 10.7358 33.3277 10.3415 30.3646C9.74472 25.9218 9.48293 21.4404 9.55829 16.9583C9.58296 14.5163 9.66621 12.0774 9.72479 9.63536L9.76179 9.20678ZM10.878 10.3384V10.8872C10.8492 12.0856 10.8163 13.284 10.7793 14.4824C10.6391 18.5367 10.7276 22.5956 11.0445 26.6399C11.2651 29.3683 11.6585 32.0798 12.2223 34.7584C13.0619 38.8974 14.4797 42.8977 16.4341 46.6415C20.8897 55.0637 27.9886 61.7889 36.6392 65.7829C36.7562 65.841 36.8855 65.8698 37.0161 65.8666C37.1467 65.8633 37.2745 65.8283 37.3885 65.7644C39.5485 64.7576 41.6214 63.5736 43.586 62.2247C50.0317 57.8794 55.1743 51.8629 58.463 44.8193C60.4931 40.3381 61.85 35.5816 62.4899 30.7038C62.9766 27.3182 63.228 23.9029 63.2422 20.4825C63.2422 17.7075 63.196 14.9325 63.162 12.1359C63.162 11.547 63.1158 10.9581 63.0911 10.3353C45.8175 7.31758 28.1515 7.32067 10.878 10.3384Z" fill="white"/>
</svg>
