<svg width="69" height="69" viewBox="0 0 69 69" fill="none" xmlns="http://www.w3.org/2000/svg">
<path d="M34.5 14.3262C43.1365 14.3262 52.394 16.0857 59.7597 20.7633C64.5466 23.8223 69 28.4625 69 34.5058C69 41.5668 62.9711 46.7015 57.1952 49.7059C50.3211 53.2652 42.1992 54.6739 34.5 54.6739C25.8664 54.6739 16.6261 52.9345 9.2575 48.2397C4.4735 45.1778 0 40.5404 0 34.5087C0 27.416 6.0145 22.3014 11.8047 19.2913C18.699 15.7378 26.8036 14.3262 34.5 14.3262ZM34.4281 16.4709C26.3983 16.4709 17.7474 17.9745 10.7812 22.172C6.39975 24.794 2.07 28.9197 2.07 34.3994C2.07 40.8365 7.935 45.3417 13.179 47.9292C19.6707 51.0974 27.2579 52.3279 34.4281 52.3279C42.4724 52.3279 51.129 50.8243 58.0951 46.6268C62.4565 43.9875 66.8035 39.882 66.8035 34.3994C66.8035 27.9508 60.9529 23.437 55.6945 20.8725C49.2028 17.6985 41.6128 16.4709 34.4281 16.4709ZM4.12562 29.9432L17.342 27.6892L21.321 19.0555L25.2827 27.6863L38.4963 29.9403L25.2827 32.2173L21.321 40.871L17.342 32.2173L4.12562 29.9432ZM33.1804 36.524L39.0109 35.5005L40.7502 31.5934L42.4925 35.5005L48.323 36.524L42.4925 37.5303L40.7502 41.4403L39.0109 37.5303L33.1804 36.524ZM45.2439 26.1137L51.0744 25.1074L52.8138 21.183L54.556 25.1045L60.3865 26.1108L54.556 27.1372L52.8138 31.0472L51.0715 27.1372L45.2439 26.1137ZM39.0137 44.5913L44.8213 43.585L46.5664 39.6607L48.3259 43.585L54.1535 44.5913L48.3259 45.6177L46.5664 49.5277L44.8241 45.6177L39.0137 44.5913ZM21.1025 46.0029L26.933 44.9967L28.6925 41.0694L30.4319 44.9967L36.2624 46.0029L30.4319 47.0293L28.6925 50.9364L26.933 47.0293L21.1025 46.0029ZM50.416 36.363L56.2293 35.3367L57.9686 31.4295L59.7281 35.3367L65.5586 36.363L59.7281 37.3693L57.9686 41.2707L56.2264 37.3693L50.416 36.363Z" fill="white"/>
</svg>
